 <svg  version="1.0" xmlns="http://www.w3.org/2000/svg"  width="450.000000pt" height="418.000000pt" viewBox="0 0 450.000000 418.000000"  preserveAspectRatio="xMidYMid meet">  <g transform="translate(0.000000,418.000000) scale(0.100000,-0.100000)" fill="#f4e5c3" stroke="none"> <path d="M2180 3383 c-323 -23 -635 -225 -793 -513 -78 -141 -117 -282 -122 -440 -19 -568 421 -1028 984 -1031 115 0 146 3 251 28 346 81 639 376 724 728 49 205 31 435 -51 625 -167 390 -568 634 -993 603z m265 -52 c302 -62 541 -249 675 -526 171 -353 113 -761 -151 -1059 -110 -124 -305 -242 -479 -288 -120 -32 -348 -31 -464 0 -190 52 -329 135 -464 277 -131 138 -206 280 -244 463 -28 136 -21 329 17 456 142 481 627 777 1110 677z"/> <path d="M2080 3241 c-406 -87 -690 -438 -690 -853 0 -591 588 -1012 1147 -819 355 123 586 446 586 821 0 553 -505 965 -1043 851z m387 -46 c248 -66 449 -235 550 -464 54 -120 67 -186 67 -341 1 -132 -2 -153 -27 -235 -82 -259 -278 -465 -524 -550 -95 -33 -113 -36 -243 -42 -245 -11 -455 71 -628 246 -66 68 -87 96 -139 191 -104 189 -128 431 -62 635 81 252 245 426 504 536 130 55 348 66 502 24z"/> <path d="M2210 3073 c-66 -12 -219 -56 -255 -72 -75 -36 -152 -150 -161 -242 -5 -52 11 -88 40 -90 15 0 76 -97 76 -119 0 -10 -7 -23 -15 -30 -21 -17 -39 -1 -54 50 -6 22 -21 45 -32 51 -12 6 -57 11 -101 11 -104 1 -125 -17 -120 -103 3 -42 36 -69 87 -69 25 0 50 -6 58 -15 13 -12 35 -109 54 -230 2 -16 8 -48 13 -70 11 -51 -1 -65 -55 -65 -37 0 -47 -5 -75 -37 -29 -32 -32 -41 -27 -82 4 -34 12 -52 36 -73 29 -26 37 -28 121 -28 50 0 90 -4 90 -9 0 -4 -5 -23 -11 -40 -24 -69 25 -147 100 -161 78 -14 146 40 146 118 0 26 -2 56 -5 67 -5 19 0 20 150 20 150 0 155 -1 151 -20 -2 -11 -3 -42 -4 -69 0 -44 3 -52 36 -82 32 -29 44 -34 88 -34 45 0 55 4 84 33 41 41 52 78 38 129 -6 21 -7 40 -4 43 4 2 49 5 99 6 89 2 93 3 118 32 22 26 23 32 11 51 -16 24 -45 34 -106 35 -33 1 -41 4 -34 14 5 6 29 62 52 122 24 61 46 119 51 130 5 11 20 54 35 95 14 41 30 84 35 96 11 29 -7 63 -49 91 -31 21 -45 23 -169 23 -74 0 -152 -5 -173 -12 -22 -6 -42 -9 -45 -5 -9 9 6 47 19 47 6 0 40 28 74 62 58 58 64 61 88 50 54 -25 94 -8 134 59 28 46 26 63 -12 106 -19 21 -45 63 -59 94 -16 35 -40 67 -64 85 -34 26 -46 29 -123 32 -47 1 -135 4 -196 6 -60 2 -121 2 -135 -1z m213 -32 c47 -11 54 -18 39 -33 -18 -18 -15 -88 5 -110 20 -23 55 -23 96 -1 l32 18 -35 3 c-49 5 -72 28 -68 71 3 30 8 36 36 43 75 20 159 -37 182 -121 7 -26 23 -50 47 -69 35 -28 36 -30 24 -61 -11 -24 -19 -31 -42 -31 -15 0 -31 5 -34 10 -3 6 -11 10 -17 10 -7 0 -6 -6 2 -15 7 -8 23 -15 36 -15 17 0 22 -4 18 -15 -9 -21 -47 -19 -74 5 -15 13 -31 18 -43 14 -13 -4 -30 4 -54 28 -27 25 -33 28 -24 10 7 -12 21 -28 31 -35 11 -6 20 -16 20 -20 0 -14 -71 -97 -92 -108 -18 -10 -19 -9 -4 20 17 32 13 52 -16 90 -22 29 -23 59 -3 88 14 20 13 21 -24 27 -21 3 -50 16 -66 27 -23 19 -26 28 -22 59 6 46 1 55 -46 75 -54 22 -59 18 -7 -8 29 -14 44 -27 41 -37 -15 -56 -13 -70 17 -100 17 -17 44 -33 59 -36 26 -5 28 -9 25 -39 -3 -23 3 -46 18 -70 20 -33 21 -41 11 -76 -6 -21 -21 -43 -31 -49 -23 -12 -25 -4 -10 35 14 37 -3 95 -37 126 l-27 24 25 -35 c37 -53 34 -117 -8 -158 -25 -26 -32 -29 -37 -16 -4 11 -14 15 -32 11 -26 -5 -26 -4 -18 37 32 161 -44 275 -232 346 -44 17 -25 1 30 -25 139 -65 207 -164 191 -272 -7 -51 -18 -57 -112 -66 l-62 -5 20 27 c11 15 25 47 30 71 19 82 -47 164 -164 204 -26 9 -55 16 -65 16 -9 0 14 -11 51 -24 110 -39 167 -95 167 -164 0 -15 -12 -52 -26 -81 -21 -41 -31 -52 -45 -48 -11 3 -19 1 -19 -4 0 -5 -6 -9 -14 -9 -8 0 -17 -7 -20 -16 -6 -15 -8 -15 -26 1 -12 11 -28 15 -42 12 -45 -11 -117 120 -118 213 0 26 -3 31 -10 20 -5 -8 -10 -39 -10 -67 0 -32 -4 -53 -11 -53 -8 0 -10 20 -7 61 3 46 10 66 24 78 11 9 26 31 33 49 21 52 73 88 162 117 152 48 298 65 382 46z m-607 -503 l9 -62 430 -2 c402 -2 435 -4 509 -24 107 -28 119 -35 105 -61 -9 -18 -12 -19 -27 -6 -18 16 -84 37 -114 37 -34 0 -18 -17 21 -23 21 -2 54 -12 74 -22 34 -16 35 -18 24 -43 -6 -15 -12 -28 -13 -30 -1 -1 -23 9 -49 23 -51 26 -75 31 -75 15 0 -5 5 -10 11 -10 16 0 109 -42 109 -49 0 -4 -6 -15 -13 -24 -11 -17 -15 -16 -54 3 -46 22 -53 24 -53 12 0 -4 22 -15 50 -25 l50 -18 -17 -42 c-9 -23 -19 -46 -23 -52 -4 -5 -10 -23 -14 -38 -5 -23 -11 -27 -29 -22 -20 6 -21 5 -4 -8 15 -12 16 -19 6 -41 l-12 -26 -487 0 c-421 0 -489 -2 -500 -15 -10 -12 -10 -18 0 -30 11 -13 87 -15 576 -15 347 0 564 -4 564 -9 0 -6 -10 -17 -22 -25 -20 -14 -91 -16 -576 -16 l-553 0 -24 25 c-16 15 -25 36 -25 55 0 19 9 40 25 55 21 22 33 25 90 25 39 0 65 4 65 11 0 16 -70 388 -76 403 -8 21 -51 36 -104 36 l-48 0 -4 50 -3 50 96 0 96 0 9 -62z m567 -36 c-41 -2 -78 0 -81 3 -3 2 0 16 6 30 14 31 47 33 63 3 10 -18 13 -19 17 -8 3 8 12 23 21 33 15 18 17 17 33 -20 l17 -38 -76 -3z m-285 35 c7 -18 12 -35 12 -38 0 -2 -38 -3 -86 -1 l-85 4 3 26 c4 37 58 44 82 11 l15 -22 10 26 c14 37 35 34 49 -6z m172 19 c0 -35 -13 -46 -52 -46 -84 0 -111 46 -30 53 26 2 55 4 65 5 9 1 17 -4 17 -12z m601 -67 c31 -22 33 -27 20 -47 -7 -12 -14 -11 -40 3 -46 23 -170 45 -257 45 -43 0 -74 4 -74 10 0 6 60 10 161 10 147 0 163 -2 190 -21z m-805 -653 c37 -37 42 -62 19 -106 -19 -36 -43 -50 -88 -50 -82 0 -120 110 -56 164 43 37 83 34 125 -8z m532 9 c39 -32 48 -74 28 -114 -19 -36 -44 -51 -86 -51 -42 0 -77 25 -90 64 -13 41 -2 75 36 105 36 28 76 27 112 -4z"/> <path d="M2597 2903 c-14 -14 -6 -19 23 -15 16 2 27 8 24 13 -6 11 -38 12 -47 2z"/> <path d="M2730 2805 c0 -9 5 -15 11 -13 6 2 11 8 11 13 0 5 -5 11 -11 13 -6 2 -11 -4 -11 -13z"/> <path d="M1953 2787 c-18 -7 -40 -20 -50 -30 -15 -15 -11 -14 20 3 51 30 127 31 165 3 33 -25 40 -77 17 -125 l-16 -33 20 25 c80 98 -26 204 -156 157z"/> <path d="M1866 2253 c19 -98 34 -184 34 -190 0 -10 83 -13 380 -13 l380 0 0 190 0 190 -413 0 -414 0 33 -177z m744 127 c0 -6 -133 -11 -355 -12 -279 -2 -355 0 -355 10 0 9 78 12 355 12 224 0 355 -4 355 -10z m28 -72 l-3 -23 -375 0 -375 0 -3 23 -3 22 381 0 381 0 -3 -22z m0 -130 l-3 -23 -359 -3 c-217 -1 -364 2 -369 7 -5 5 -7 17 -4 25 6 14 49 16 372 16 l366 0 -3 -22z m-26 -73 c3 -11 -645 -20 -672 -10 -40 16 34 20 339 20 212 0 332 -4 333 -10z"/> <path d="M2710 2200 c0 -5 17 -10 38 -9 30 0 33 2 17 9 -28 12 -55 12 -55 0z"/> <path d="M2710 2140 c0 -5 10 -10 23 -10 18 0 19 2 7 10 -19 13 -30 13 -30 0z"/> <path d="M1971 1796 c-7 -8 -10 -24 -6 -35 14 -45 79 -30 73 17 -2 21 -9 28 -29 30 -14 2 -31 -4 -38 -12z"/> <path d="M2512 1798 c-32 -32 8 -80 48 -58 21 11 25 27 14 54 -7 19 -45 21 -62 4z"/> <path d="M780 1192 c-21 -17 -21 -22 -20 -257 0 -174 4 -243 13 -252 17 -17 77 -19 105 -4 20 11 22 19 22 94 0 45 4 88 8 94 12 19 45 -8 86 -70 59 -89 97 -125 139 -130 29 -5 43 -1 63 17 24 20 25 25 14 45 -28 54 -135 194 -171 225 -21 18 -39 37 -39 43 0 5 34 45 76 88 62 62 75 81 67 94 -6 10 -24 16 -44 16 -28 0 -37 -5 -49 -31 -21 -42 -131 -165 -141 -158 -5 3 -9 43 -9 89 0 75 -2 85 -22 99 -30 21 -71 20 -98 -2z m107 -25 c3 -4 -1 -7 -10 -7 -15 0 -17 -15 -17 -132 l0 -133 32 40 c18 22 70 82 116 133 49 54 77 92 68 92 -9 0 -16 5 -16 10 0 6 18 10 40 10 22 0 40 -4 40 -10 0 -5 -7 -10 -16 -10 -9 0 -35 -21 -58 -47 -22 -27 -67 -76 -100 -110 l-58 -62 35 6 c51 8 83 -16 157 -118 35 -49 73 -99 83 -109 17 -20 17 -20 -38 -20 -30 0 -54 4 -53 9 2 5 -26 49 -62 99 -73 103 -105 124 -145 98 -24 -16 -25 -22 -25 -105 0 -77 2 -90 18 -94 9 -3 -12 -5 -48 -5 -36 0 -59 2 -52 5 15 6 18 453 2 453 -5 0 -10 3 -10 8 0 9 107 8 117 -1z"/> <path d="M1651 1197 l-24 -12 -1 -241 -1 -240 23 4 22 4 0 224 c0 217 -1 224 -20 224 -11 0 -20 4 -20 8 0 5 51 8 113 7 96 0 119 -4 160 -24 161 -78 166 -344 8 -428 -39 -20 -58 -23 -157 -23 -62 0 -115 -4 -119 -9 -10 -17 32 -22 148 -17 96 4 122 8 154 27 76 43 123 131 123 229 0 108 -45 196 -123 240 -33 19 -143 36 -252 39 -5 1 -21 -5 -34 -12z"/> <path d="M2211 1196 c-24 -13 -24 -13 14 -20 20 -4 55 -4 76 -1 26 4 39 3 39 -4 0 -6 -9 -11 -20 -11 -19 0 -20 -7 -20 -165 0 -122 4 -175 14 -200 20 -47 69 -75 129 -75 42 0 54 5 83 34 l34 34 0 155 c0 85 3 169 6 186 6 27 4 31 -15 31 -11 0 -21 5 -21 10 0 6 18 10 40 10 22 0 40 -4 40 -10 0 -5 -7 -10 -15 -10 -13 0 -15 -27 -15 -179 0 -168 -1 -180 -22 -211 -41 -59 -72 -75 -146 -75 -85 0 -128 23 -159 85 -21 41 -23 58 -23 211 l0 167 -26 5 c-20 4 -24 1 -18 -12 4 -9 9 -87 10 -175 2 -87 8 -174 14 -192 14 -42 61 -90 107 -109 69 -29 175 -13 226 33 48 43 57 82 57 251 0 104 4 169 12 187 11 23 10 28 -7 40 -24 18 -46 18 -69 1 -16 -12 -17 -17 -6 -37 9 -17 13 -72 13 -178 0 -137 -3 -157 -20 -180 -28 -38 -63 -48 -112 -33 -65 19 -73 46 -73 225 0 83 3 161 7 173 13 41 -80 69 -134 39z"/> <path d="M2783 1188 c-20 -22 -21 -33 -19 -255 1 -270 1 -268 88 -264 47 2 58 24 58 115 0 45 3 85 6 89 14 13 40 -11 105 -100 39 -52 80 -98 92 -102 32 -12 83 -2 103 20 16 18 15 21 -11 61 -64 99 -131 182 -167 208 l-38 28 35 43 c20 24 57 63 83 87 39 35 45 45 36 60 -23 36 -104 18 -104 -24 0 -15 -119 -154 -131 -154 -5 0 -9 40 -9 89 0 82 -2 91 -22 105 -33 23 -81 20 -105 -6z m107 -20 c0 -5 -4 -8 -10 -8 -15 0 -13 -447 3 -453 7 -3 -15 -5 -48 -5 -33 0 -54 2 -47 5 15 6 18 453 2 453 -5 0 -10 3 -10 8 0 4 25 7 55 7 30 0 55 -3 55 -7z m260 3 c0 -5 -8 -11 -18 -13 -9 -2 -61 -51 -114 -110 l-97 -106 37 5 c49 7 79 -18 162 -134 35 -49 70 -94 78 -100 13 -11 6 -13 -42 -13 -31 0 -55 3 -53 8 6 10 -113 171 -145 195 -23 17 -31 19 -53 9 -14 -6 -25 -8 -25 -4 0 4 48 61 107 126 59 66 101 122 95 124 -27 9 -10 22 28 22 22 0 40 -4 40 -9z"/> <path d="M3506 1189 c-14 -11 -26 -28 -26 -38 0 -17 -61 -208 -79 -246 -5 -11 -19 -51 -32 -90 -12 -38 -25 -74 -30 -79 -13 -15 -11 -26 5 -26 10 0 36 66 82 203 94 282 84 263 133 259 23 -2 41 -9 41 -14 0 -24 144 -431 157 -444 12 -12 6 -14 -44 -14 -32 0 -53 4 -47 8 8 5 3 32 -19 90 l-30 82 -92 0 -92 0 -30 -85 c-21 -60 -26 -85 -18 -89 8 -3 19 19 30 59 9 36 23 69 30 75 8 6 42 10 81 8 l68 -3 28 -79 c15 -44 32 -84 37 -89 17 -17 89 -13 108 6 16 16 16 21 1 74 -9 32 -43 137 -76 233 -45 131 -67 181 -87 197 -33 29 -65 29 -99 2z"/> <path d="M1362 1177 c-28 -30 -28 -49 2 -84 l25 -28 -27 -27 c-26 -28 -26 -28 -24 -185 1 -116 5 -161 15 -171 19 -18 67 -21 100 -5 l28 14 -1 164 c-2 146 -4 167 -21 189 -23 29 -23 33 -4 52 21 21 19 67 -3 87 -26 24 -65 21 -90 -6z m73 -42 c0 -25 -4 -30 -24 -30 -28 0 -47 25 -38 49 5 12 16 16 34 14 24 -3 28 -8 28 -33z m5 -259 c0 -148 2 -165 18 -169 9 -3 -12 -5 -48 -5 -36 0 -59 2 -52 5 9 3 12 43 12 149 0 94 -4 143 -10 139 -5 -3 -10 -3 -10 2 0 7 64 40 83 42 4 1 7 -73 7 -163z"/> <path d="M1740 936 l0 -226 49 0 c100 0 153 69 159 207 5 98 -14 166 -58 208 -25 23 -41 30 -90 33 l-60 4 0 -226z m130 156 c37 -45 54 -117 45 -188 -14 -114 -60 -172 -132 -165 -15 1 -18 352 -4 380 15 27 56 15 91 -27z"/> <path d="M3520 1149 c0 -2 -20 -61 -43 -131 l-43 -128 91 0 91 0 -43 127 c-38 111 -53 147 -53 132z m24 -160 c10 -28 15 -58 12 -65 -7 -18 -75 -19 -82 -1 -6 18 35 129 46 122 4 -2 15 -28 24 -56z"/> <path d="M3345 690 c-4 -6 5 -10 20 -10 15 0 24 4 20 10 -3 6 -12 10 -20 10 -8 0 -17 -4 -20 -10z"/> </g> </svg> 